<svg width="25" height="25" viewBox="0 0 25 25" fill="none" xmlns="http://www.w3.org/2000/svg">
<path fill-rule="evenodd" clip-rule="evenodd" d="M5.87524 9.49951H7.75024V11.3745H5.87524V9.49951ZM7.75024 13.2495H5.87524V15.1245H7.75024V13.2495ZM11.6248 13.2495H9.74976V15.1245H11.6248V13.2495ZM11.6248 9.49951H9.74976V11.3745H11.6248V9.49951ZM5.87524 16.9995H7.75024V18.8745H5.87524V16.9995ZM11.6248 16.9995H9.74976V18.8745H11.6248V16.9995ZM13.4998 13.2495H15.3748V15.1245H13.4998V13.2495ZM19.1248 13.2495H17.2498V15.1245H19.1248V13.2495ZM13.4998 9.49951H15.3748V11.3745H13.4998V9.49951ZM19.1248 9.49951H17.2498V11.3745H19.1248V9.49951ZM23.125 23.125H1.875V3.75H5.87524V5.625H7.75024V3.75H17.1252V5.625H19.0002V3.75H23.0005V23.125H23.125ZM19.1248 1.875V0H17.2498V1.875H7.75024V0H5.87524V1.875H0V25H25V1.875H19.1248Z" fill="#EBECF2"/>
</svg>
