<svg width="30" height="30" viewBox="0 0 76 30" fill="none" xmlns="http://www.w3.org/2000/svg">
<path d="M53.481 15.0552C53.481 19.0361 50.9319 22.2057 46.6444 22.2057H42.4922V8.40625H46.4901C50.9319 8.40625 53.481 11.0153 53.481 15.0552ZM46.7025 21.0074C49.5611 21.0074 52.0521 18.978 52.0521 15.0552C52.0521 11.1323 49.5611 9.60451 46.5863 9.60451H43.902V21.0074H46.7025Z" fill="white"/>
<path d="M59.4844 22.3799C56.4906 22.3799 54.6758 20.1378 54.6758 17.1999C54.6758 14.262 56.5494 12.0391 59.4271 12.0391C62.6906 12.0391 63.8689 14.5327 63.9659 17.1418C63.985 17.2771 63.985 17.4507 63.985 17.6052H55.9702C56.1054 19.809 57.4763 21.2581 59.466 21.2581C60.9339 21.2581 62.1122 20.5431 62.537 19.2485H63.8888C63.3096 21.2007 61.7255 22.3791 59.4851 22.3791L59.4844 22.3799ZM62.6325 16.5239C62.4392 14.4555 61.4352 13.1417 59.4263 13.1417C57.4174 13.1417 56.1819 14.5526 55.9885 16.5239H62.6325Z" fill="white"/>
<path d="M67.0236 8.40625V22.2057H65.6719V8.40625H67.0236Z" fill="white"/>
<path d="M72.1064 8.40625H73.1303V9.52727H72.3578C71.6234 9.52727 71.1413 9.85609 71.1413 10.9962V12.2144H72.8407V13.3163H71.1413V22.2065H69.8087V13.3163H68.418V12.2144H69.8087V10.9389C69.8087 9.60527 70.4459 8.40701 72.1071 8.40701L72.1064 8.40625ZM74.5531 12.2136H75.9048V22.2057H74.5531V12.2136ZM74.5722 8.40625H76.0011V10.3394H74.5722V8.40625Z" fill="white"/>
<path d="M15 0C6.71544 0 0 6.71544 0 15C0 23.2846 6.71544 30 15 30C23.2846 30 30 23.2846 30 15C30 6.71544 23.2846 0 15 0ZM15.445 22.2002H11.5001C10.2919 22.2002 9.30312 21.2115 9.30312 20.0033V8.40003H15.7165C18.0503 8.40003 20.2342 9.64952 21.33 11.7103C24.1142 16.9446 20.3933 22.2002 15.445 22.2002Z" fill="white"/>
</svg>
