<svg width="16" height="16" viewBox="0 0 16 16" fill="none" xmlns="http://www.w3.org/2000/svg">
<path fill-rule="evenodd" clip-rule="evenodd" d="M6.77734 8.56563H16V7.36562H6.77734C6.50391 6.16953 5.43828 5.275 4.15859 5.275C2.87969 5.275 1.81328 6.16953 1.53984 7.36562H0V8.56563H1.53984C1.81328 9.76172 2.87969 10.6578 4.15859 10.6578C5.43828 10.6578 6.50391 9.76172 6.77734 8.56563ZM2.66719 7.96562C2.66719 7.14375 3.33594 6.475 4.15859 6.475C4.98047 6.475 5.65 7.14375 5.65 7.96562C5.65 8.78906 4.98047 9.45781 4.15859 9.45781C3.33594 9.45781 2.66719 8.78906 2.66719 7.96562ZM11.8086 5.38281C13.0883 5.38281 14.1539 4.48672 14.4273 3.29063H16V2.09063H14.4273C14.1539 0.894531 13.0883 0 11.8086 0C10.5297 0 9.46328 0.894531 9.18984 2.09063H0V3.29063H9.18984C9.46328 4.48672 10.5297 5.38281 11.8086 5.38281ZM10.3172 2.69062C10.3172 1.86875 10.9859 1.2 11.8086 1.2C12.6312 1.2 13.3 1.86875 13.3 2.69062C13.3 3.51406 12.6312 4.18281 11.8086 4.18281C10.9859 4.18281 10.3172 3.51406 10.3172 2.69062ZM8.275 16C9.55469 16 10.6203 15.1039 10.8938 13.9078H16V12.7078H10.8938C10.6203 11.5117 9.55469 10.6172 8.275 10.6172C6.99609 10.6172 5.92969 11.5117 5.65625 12.7078H0V13.9078H5.65625C5.92969 15.1039 6.99609 16 8.275 16ZM6.78359 13.3078C6.78359 12.4859 7.45312 11.8172 8.275 11.8172C9.09688 11.8172 9.76641 12.4859 9.76641 13.3078C9.76641 14.1312 9.09688 14.8 8.275 14.8C7.45312 14.8 6.78359 14.1312 6.78359 13.3078Z" fill="white"/>
</svg>
