<svg width="20" height="20" viewBox="0 0 20 20" fill="none" xmlns="http://www.w3.org/2000/svg">
<path fill-rule="evenodd" clip-rule="evenodd" d="M0 10C0 4.5 4.5 0 10 0C15.5 0 20 4.5 20 10C20 15.5 15.5 20 10 20C4.5 20 0 15.5 0 10ZM18.5 10C18.5 5.29883 14.7012 1.5 10 1.5C5.30078 1.5 1.5 5.29883 1.5 10C1.5 14.6992 5.30078 18.5 10 18.5C14.7012 18.5 18.5 14.6992 18.5 10ZM9.0918 11.9785C9.0918 11.4033 9.16211 10.9443 9.30469 10.6025C9.44727 10.2598 9.73047 9.88477 10.1523 9.47559C10.5742 9.06543 10.8418 8.77441 10.9531 8.60156C11.127 8.33789 11.2129 8.05273 11.2129 7.74609C11.2129 7.33984 11.1133 7.03027 10.9121 6.81641C10.7109 6.60254 10.4141 6.49609 10.0254 6.49609C9.6543 6.49609 9.35352 6.60059 9.12695 6.80957C8.90039 7.01855 8.78516 7.30176 8.78516 7.65918H7.20898C7.21875 6.89355 7.47852 6.28711 7.99023 5.84082C8.50391 5.39453 9.18164 5.17188 10.0254 5.17188C10.8945 5.17188 11.5742 5.39258 12.0605 5.83398C12.5469 6.27637 12.791 6.89355 12.791 7.68555C12.791 8.3916 12.4609 9.08691 11.8047 9.77051L11.0059 10.5566C10.7207 10.8818 10.5723 11.3555 10.5645 11.9785H9.0918ZM9.2207 13.377C9.06055 13.5342 8.98047 13.7393 8.98047 13.9941C8.98047 14.2314 9.05664 14.4297 9.21094 14.5889C9.36523 14.748 9.58398 14.8281 9.86914 14.8281C10.1562 14.8281 10.377 14.748 10.5312 14.5889C10.6875 14.4297 10.7656 14.2314 10.7656 13.9941C10.7656 13.748 10.6855 13.5449 10.5254 13.3828C10.3652 13.2217 10.1465 13.1406 9.86914 13.1406C9.59766 13.1406 9.38086 13.2197 9.2207 13.377Z" fill="#CCCFDE"/>
</svg>
