<svg width="20" height="20" viewBox="0 0 20 20" fill="none" xmlns="http://www.w3.org/2000/svg">
<path fill-rule="evenodd" clip-rule="evenodd" d="M19.9995 18.9536L13.2603 12.2144C14.3198 10.9243 14.9575 9.2749 14.9575 7.47852C14.9575 3.35498 11.6021 0 7.47852 0C3.35498 0 0 3.35498 0 7.47852C0 11.6021 3.35498 14.9575 7.47852 14.9575C9.2749 14.9575 10.9243 14.3198 12.2144 13.2603L18.9536 19.9995L19.9995 18.9536ZM7.47852 13.478C4.1709 13.478 1.479 10.7866 1.479 7.47852C1.479 4.1709 4.1709 1.479 7.47852 1.479C10.7866 1.479 13.478 4.1709 13.478 7.47852C13.478 10.7866 10.7866 13.478 7.47852 13.478Z" fill="#EDDEDE"/>
</svg>
