<svg width="16" height="16" viewBox="0 0 16 16" fill="none" xmlns="http://www.w3.org/2000/svg">
<path fill-rule="evenodd" clip-rule="evenodd" d="M8.8 1.2H7.2V2.78744L6.3747 3.0587C5.74374 3.26609 5.15926 3.59354 4.65152 4.02141L3.97101 4.59487L2.53139 3.65997L1.65997 5.00184L3.13897 5.96232L2.94214 6.78621C2.84804 7.18009 2.8 7.58644 2.8 8C2.8 8.39711 2.84429 8.78757 2.93114 9.16678L3.11837 9.9843L1.65997 10.9314L2.53139 12.2733L3.93361 11.3627L4.61531 11.9478C5.13128 12.3907 5.72858 12.7289 6.3747 12.9413L7.2 13.2126V14.8H8.8V13.2126L9.6253 12.9413C10.271 12.7291 10.868 12.3911 11.3837 11.9486L12.0654 11.3638L13.4658 12.2733L14.3373 10.9314L12.8811 9.98573L13.0686 9.16805C13.1556 8.78844 13.2 8.39755 13.2 8C13.2 7.58599 13.1519 7.17923 13.0576 6.78495L12.8605 5.96089L14.3373 5.00184L13.4658 3.65997L12.028 4.59373L11.3475 4.02059C10.84 3.59312 10.2558 3.26595 9.6253 3.0587L8.8 2.78744V1.2ZM10 1.9187C10.7848 2.17666 11.5026 2.58231 12.1206 3.10277L13.8187 2L15.9972 5.35468L14.2246 6.50582C14.3393 6.98519 14.4 7.4855 14.4 8C14.4 8.4938 14.3441 8.97454 14.2382 9.43623L15.9972 10.5786L13.8187 13.9332L12.1651 12.8594C11.5372 13.398 10.8037 13.8171 10 14.0813V16H6V14.0813C5.19574 13.817 4.46186 13.3975 3.83373 12.8584L2.17856 13.9332L0 10.5786L1.76143 9.43467C1.6558 8.97346 1.6 8.49325 1.6 8C1.6 7.48606 1.66058 6.98627 1.77499 6.50737L0 5.35468L2.17856 2L3.87824 3.10379C4.49643 2.58284 5.21467 2.17683 6 1.9187V0H10V1.9187ZM8 9.2C8.66274 9.2 9.2 8.66274 9.2 8C9.2 7.33726 8.66274 6.8 8 6.8C7.33726 6.8 6.8 7.33726 6.8 8C6.8 8.66274 7.33726 9.2 8 9.2ZM8 10.4C6.67452 10.4 5.6 9.32548 5.6 8C5.6 6.67452 6.67452 5.6 8 5.6C9.32548 5.6 10.4 6.67452 10.4 8C10.4 9.32548 9.32548 10.4 8 10.4Z" fill="#6BA7FF"/>
</svg>
