<svg width="55" height="34" viewBox="0 0 55 34" fill="none" xmlns="http://www.w3.org/2000/svg">
<path d="M25.9853 25.3372C15.6423 17.0561 11.3275 6.42188 0.476562 6.42188V25.3372H25.9853Z" fill="white"/>
<path d="M47.9848 6.13765C45.8727 6.13765 43.9844 7.0564 42.8895 8.40533V0.476562H40.3359V19.3919H42.4382L42.7079 17.4036C43.4494 18.3964 44.9599 19.6756 47.8621 19.6756C51.7608 19.6756 54.523 16.8886 54.523 12.938C54.523 8.98739 51.8727 6.13765 47.9853 6.13765H47.9848ZM47.2854 17.3064C44.473 17.3064 42.7939 15.6321 42.7939 12.9104C42.7939 10.1888 44.5141 8.5145 47.2854 8.5145C50.0568 8.5145 51.777 10.1888 51.777 12.9104C51.777 15.6321 50.0568 17.3064 47.2854 17.3064Z" fill="white"/>
<path d="M38.4442 0.476562H35.8906V19.3919H38.4442V0.476562Z" fill="white"/>
<path d="M28.6721 17.4736C26.8098 17.4736 24.8545 16.5651 23.8044 15.2594L22.082 16.8986C23.7617 18.802 25.9586 19.6786 28.5619 19.6786C32.1347 19.6786 34.377 18.087 34.377 15.4032C34.377 9.82425 24.6853 13.3133 24.6853 10.1691C24.6853 9.01846 26.0272 8.36669 28.1171 8.36669C29.9795 8.36669 31.3241 8.97036 32.1601 9.83344L33.8825 8.19429C32.7422 6.9675 30.595 6.14062 28.1814 6.14062C24.5707 6.14062 22.1955 7.84895 22.1955 10.5522C22.1955 15.9777 31.8488 12.527 31.8488 15.6902C31.8488 16.8024 30.5907 17.4731 28.6716 17.4731L28.6721 17.4736Z" fill="white"/>
<path d="M54.2396 23.4453H26.6367C32.3346 28.0947 41.0832 32.903 54.2396 32.903V23.4453Z" fill="white"/>
</svg>
