<svg width="25" height="25" viewBox="0 0 25 25" fill="none" xmlns="http://www.w3.org/2000/svg">
<path d="M16.4734 8.90625L9.66094 24.6625L9.52344 24.9688H11.2484L12.0359 23.0938L17.1922 20.525L22.4984 23.175L23.2859 25H24.8234L17.8734 8.90625H16.4734ZM15.6234 14.4938L16.1109 14.9L15.0734 15.7625L15.6234 14.4938ZM12.8422 21.075L13.7797 18.8L15.6234 19.7L12.8422 21.075ZM21.6234 21.125L18.7484 19.7L20.6234 18.7812L21.6234 21.125ZM17.1734 18.9125L14.8672 17.7625L17.1859 15.825L19.4922 17.7563L17.1734 18.9125ZM18.7547 14.5375L19.2922 15.7875L18.2859 14.9437L18.7547 14.5375ZM17.1859 14.0062L16.1859 13.1687L17.1734 10.8812L18.1672 13.1813L17.1859 14.0062Z" fill="#000"/>
</svg>
