<svg width="20" height="15" viewBox="0 0 20 15" fill="none" xmlns="http://www.w3.org/2000/svg">
<path fill-rule="evenodd" clip-rule="evenodd" d="M0 5.97559C1.91602 2.33301 5.78711 0 10.002 0C14.1895 0 18.084 2.33398 20 5.96289L18.8125 6.80566L18.7402 6.84082C17.123 3.59766 13.6934 1.50098 10.002 1.50098C6.2832 1.50098 2.87695 3.60742 1.26172 6.87305L0 5.97559ZM9.99023 3.4707C6.87695 3.4707 4.02148 5.13574 2.49414 7.74805L3.74219 8.63574C4.97656 6.40234 7.37305 4.97168 9.99023 4.97168C12.5957 4.97168 15.0098 6.40527 16.2402 8.63379L17.4883 7.74805C15.9609 5.14062 13.0879 3.4707 9.99023 3.4707ZM5.13672 9.62695C6.24609 8.12109 8.03906 7.18359 9.97852 7.18359C11.9121 7.18359 13.7227 8.125 14.832 9.63574L13.5918 10.5166C12.7695 9.38867 11.4199 8.68457 9.97852 8.68457C8.53516 8.68457 7.19922 9.38477 6.37695 10.5078L5.13672 9.62695ZM7.65039 12.748C7.65039 11.5068 8.68555 10.4961 9.95508 10.4961C11.2246 10.4961 12.2598 11.5068 12.2598 12.748C12.2598 13.9893 11.2246 15 9.95508 15C8.68555 15 7.65039 13.9893 7.65039 12.748ZM9.1875 12.748C9.1875 13.1621 9.5332 13.499 9.95508 13.499C10.3789 13.499 10.7227 13.1621 10.7227 12.748C10.7227 12.335 10.3789 11.998 9.95508 11.998C9.5332 11.998 9.1875 12.335 9.1875 12.748Z" fill="white"/>
</svg>
