<svg width="20" height="20" viewBox="0 0 20 20" fill="none" xmlns="http://www.w3.org/2000/svg">
<path fill-rule="evenodd" clip-rule="evenodd" d="M20 1.05713L16.4932 4.56396C17.9395 5.56738 19.165 6.88232 20 8.46387L18.8125 9.30664L18.7402 9.3418C17.9805 7.81885 16.8125 6.56201 15.4141 5.64307L14.0576 6.99951C15.4688 7.74561 16.6729 8.85791 17.4883 10.249L16.2402 11.1348C15.498 9.7915 14.3223 8.74512 12.9375 8.11914L11.2314 9.8252C12.6748 10.1348 13.9668 10.959 14.832 12.1367L13.5918 13.0176C12.7695 11.8896 11.4199 11.1855 9.97852 11.1855C9.95774 11.1855 9.93697 11.1873 9.91619 11.189C9.89888 11.1905 9.88157 11.1919 9.86426 11.1924L1.05664 20L0 18.9424L6.11816 12.8242L5.13672 12.1279C6.09668 10.8252 7.56934 9.9502 9.20508 9.73779L11.3271 7.61523C10.8896 7.53125 10.4453 7.47266 9.99023 7.47266C7.37305 7.47266 4.97656 8.90332 3.74219 11.1367L2.49414 10.249C4.02148 7.63672 6.87695 5.97168 9.99023 5.97168C10.877 5.97168 11.7402 6.12256 12.5635 6.37891L14.0566 4.88574C12.8018 4.31836 11.4229 4.00195 10.002 4.00195C6.2832 4.00195 2.87695 6.1084 1.26172 9.37402L0 8.47656C1.91602 4.83398 5.78711 2.50098 10.002 2.50098C11.8311 2.50098 13.5928 2.96826 15.1699 3.77246L18.9424 0L20 1.05713ZM7.65039 15.249C7.65039 14.0078 8.68555 12.9971 9.95508 12.9971C11.2246 12.9971 12.2598 14.0078 12.2598 15.249C12.2598 16.4902 11.2246 17.501 9.95508 17.501C8.68555 17.501 7.65039 16.4902 7.65039 15.249ZM9.1875 15.249C9.1875 15.6631 9.5332 16 9.95508 16C10.3789 16 10.7227 15.6631 10.7227 15.249C10.7227 14.8359 10.3789 14.499 9.95508 14.499C9.5332 14.499 9.1875 14.8359 9.1875 15.249Z" fill="#D42D2D"/>
</svg>
